STARTFONT 2.1
COMMENT This font is still under development.
COMMENT You can use, copy, modify, distribute this file for free.
COMMENT
COMMENT This font was automatically resized by bdfresize
COMMENT mag_x = 3/2, mag_y = 36/25, threshold = 20%
COMMENT 
COMMENT 94.05.10 created by TAKAHASHI N. <ntakahas@etl.go.jp>
COMMENT   - single column Arabic characters for Mule
COMMENT 94.09.14 modified by TAKAHASHI N. <ntakahas@etl.go.jp>
COMMENT 
FONT -ETL-Fixed-Medium-R-Normal--24-240-72-72-C-120-MuleArabic-1
SIZE 24 72 72
FONTBOUNDINGBOX 12 36 0 -15
STARTPROPERTIES 18
FONTNAME_REGISTRY ""
FOUNDRY "ETL"
FAMILY_NAME "Fixed"
WEIGHT_NAME "Medium"
SLANT "R"
SETWIDITH_NAME "Normal"
ADD_STYLE_NAME ""
PIXEL_SIZE 24
POINT_SIZE 240
RESOLUTION_X 72
RESOLUTION_Y 72
SPACING "C"
AVERAGE_WIDTH 120
CHARSET_REGISTRY "MuleArabic"
CHARSET_ENCODING "1"
DEFAULT_CHAR 33
FONT_ASCENT 21
FONT_DESCENT 15
ENDPROPERTIES
CHARS 73
STARTCHAR Arabic space
ENCODING 33
SWIDTH 500 0
DWIDTH 12 0
BBX 12 36 0 -16
BITMAP
0000
0000
0000
0000
0000
0000
0000
0000
0000
0000
0000
0000
0000
0000
0000
0000
0000
0000
0000
0000
0000
0000
0000
0000
0000
0000
0000
0000
0000
0000
0000
0000
0000
0000
0000
0000
ENDCHAR
STARTCHAR Arabic exclamation mark
ENCODING 34
SWIDTH 500 0
DWIDTH 12 0
BBX 12 36 0 -16
BITMAP
0000
0000
0000
0000
0200
0700
0f80
0f80
0f80
0700
0700
0700
0200
0200
0200
0200
0000
0200
0700
0f80
0700
0200
0000
0000
0000
0000
0000
0000
0000
0000
0000
0000
0000
0000
0000
0000
ENDCHAR
STARTCHAR Arabic left parenthesis
ENCODING 35
SWIDTH 500 0
DWIDTH 12 0
BBX 12 36 0 -16
BITMAP
0000
0000
0000
0000
0000
0180
0300
0300
0600
0600
0e00
0c00
0c00
0c00
0c00
0c00
0c00
0e00
0600
0600
0300
0300
0180
0000
0000
0000
0000
0000
0000
0000
0000
0000
0000
0000
0000
0000
ENDCHAR
STARTCHAR Arabic right parenthesis
ENCODING 36
SWIDTH 500 0
DWIDTH 12 0
BBX 12 36 0 -16
BITMAP
0000
0000
0000
0000
0000
1800
0c00
0c00
0600
0600
0700
0300
0300
0300
0300
0300
0300
0700
0600
0600
0c00
0c00
1800
0000
0000
0000
0000
0000
0000
0000
0000
0000
0000
0000
0000
0000
ENDCHAR
STARTCHAR Arabic comma
ENCODING 37
SWIDTH 500 0
DWIDTH 12 0
BBX 12 36 0 -16
BITMAP
0000
0000
0000
0000
0000
0000
0000
0000
0000
0000
0000
0000
0000
0300
0600
0c00
0c00
0c00
0f00
0f80
0700
0200
0000
0000
0000
0000
0000
0000
0000
0000
0000
0000
0000
0000
0000
0000
ENDCHAR
STARTCHAR Arabic period
ENCODING 38
SWIDTH 500 0
DWIDTH 12 0
BBX 12 36 0 -16
BITMAP
0000
0000
0000
0000
0000
0000
0000
0000
0000
0000
0000
0000
0000
0000
0000
0000
0000
0200
0700
0f80
0700
0200
0000
0000
0000
0000
0000
0000
0000
0000
0000
0000
0000
0000
0000
0000
ENDCHAR
STARTCHAR Arabic colon
ENCODING 39
SWIDTH 500 0
DWIDTH 12 0
BBX 12 36 0 -16
BITMAP
0000
0000
0000
0000
0000
0000
0000
0000
0000
0000
0200
0700
0f80
0700
0200
0000
0000
0200
0700
0f80
0700
0200
0000
0000
0000
0000
0000
0000
0000
0000
0000
0000
0000
0000
0000
0000
ENDCHAR
STARTCHAR Arabic semicolon
ENCODING 40
SWIDTH 500 0
DWIDTH 12 0
BBX 12 36 0 -16
BITMAP
0000
0000
0000
0000
0000
0000
0000
0300
0600
0c00
0c00
0f00
0f80
0700
0200
0000
0000
0200
0700
0f80
0700
0200
0000
0000
0000
0000
0000
0000
0000
0000
0000
0000
0000
0000
0000
0000
ENDCHAR
STARTCHAR Arabic question mark
ENCODING 41
SWIDTH 500 0
DWIDTH 12 0
BBX 12 36 0 -16
BITMAP
0000
0000
0000
0000
0780
0fc0
1c60
1860
18e0
1cc0
0e00
0600
0700
0300
0300
0200
0000
0200
0700
0f80
0700
0200
0000
0000
0000
0000
0000
0000
0000
0000
0000
0000
0000
0000
0000
0000
ENDCHAR
STARTCHAR Arabic left guillemet
ENCODING 42
SWIDTH 500 0
DWIDTH 12 0
BBX 12 36 0 -16
BITMAP
0000
0000
0000
0000
0000
0000
0000
0000
0660
0cc0
0cc0
1980
1980
3300
3300
1980
1980
0cc0
0cc0
0660
0000
0000
0000
0000
0000
0000
0000
0000
0000
0000
0000
0000
0000
0000
0000
0000
ENDCHAR
STARTCHAR Arabic right guillemet
ENCODING 43
SWIDTH 500 0
DWIDTH 12 0
BBX 12 36 0 -16
BITMAP
0000
0000
0000
0000
0000
0000
0000
0000
6600
3300
3300
1980
1980
0cc0
0cc0
1980
1980
3300
3300
6600
0000
0000
0000
0000
0000
0000
0000
0000
0000
0000
0000
0000
0000
0000
0000
0000
ENDCHAR
STARTCHAR This position shall not be used.
ENCODING 44
SWIDTH 500 0
DWIDTH 12 0
BBX 12 36 0 -16
BITMAP
0000
0000
0000
0000
0000
0000
0000
0000
0000
0000
0000
0000
0000
0000
0000
0000
0000
0000
0000
0000
0000
0000
0000
0000
0000
0000
0000
0000
0000
0000
0000
0000
0000
0000
0000
0000
ENDCHAR
STARTCHAR hamza isolated
ENCODING 45
SWIDTH 500 0
DWIDTH 12 0
BBX 12 36 0 -16
BITMAP
0000
0000
0000
0000
0000
0000
0000
0000
0000
0000
0700
0f80
1c80
1800
1ce0
0fc0
0780
1e00
3800
2000
0000
0000
0000
0000
0000
0000
0000
0000
0000
0000
0000
0000
0000
0000
0000
0000
ENDCHAR
STARTCHAR madda on alif isolated
ENCODING 46
SWIDTH 500 0
DWIDTH 12 0
BBX 12 36 0 -16
BITMAP
1c60
3fc0
6380
0000
0000
0200
0200
0600
0600
0600
0600
0600
0600
0600
0600
0600
0600
0600
0600
0600
0400
0400
0000
0000
0000
0000
0000
0000
0000
0000
0000
0000
0000
0000
0000
0000
ENDCHAR
STARTCHAR madda on alif final
ENCODING 47
SWIDTH 500 0
DWIDTH 12 0
BBX 12 36 0 -16
BITMAP
1c60
3fc0
6380
0000
0200
0600
0600
0600
0600
0600
0600
0600
0600
0600
0600
0600
0300
03f0
01f0
00f0
0000
0000
0000
0000
0000
0000
0000
0000
0000
0000
0000
0000
0000
0000
0000
0000
ENDCHAR
STARTCHAR hamza on alif isolated
ENCODING 48
SWIDTH 500 0
DWIDTH 12 0
BBX 12 36 0 -16
BITMAP
0700
0c00
0f00
0600
0c00
0a00
0200
0600
0600
0600
0600
0600
0600
0600
0600
0600
0600
0600
0600
0600
0400
0400
0000
0000
0000
0000
0000
0000
0000
0000
0000
0000
0000
0000
0000
0000
ENDCHAR
STARTCHAR hamza on alif final
ENCODING 49
SWIDTH 500 0
DWIDTH 12 0
BBX 12 36 0 -16
BITMAP
0700
0c00
0f00
0600
0c00
0a00
0200
0600
0600
0600
0600
0600
0600
0600
0600
0600
0300
03f0
01f0
00f0
0000
0000
0000
0000
0000
0000
0000
0000
0000
0000
0000
0000
0000
0000
0000
0000
ENDCHAR
STARTCHAR hamza on waaw isolated
ENCODING 50
SWIDTH 500 0
DWIDTH 12 0
BBX 12 36 0 -16
BITMAP
0000
0000
0000
0000
0700
0c00
0f00
0600
0c00
0800
0000
0000
0700
0f80
1dc0
19c0
18c0
1fc0
0fc0
0fc0
01c0
0180
0380
0700
7e00
1c00
0000
0000
0000
0000
0000
0000
0000
0000
0000
0000
ENDCHAR
STARTCHAR hamza on waaw final
ENCODING 51
SWIDTH 500 0
DWIDTH 12 0
BBX 12 36 0 -16
BITMAP
0000
0000
0000
0000
0700
0c00
0f00
0600
0c00
0800
0000
0000
0700
0f80
1dc0
19c0
18c0
1ff0
0ff0
0ff0
0180
0180
0380
0700
7e00
1c00
0000
0000
0000
0000
0000
0000
0000
0000
0000
0000
ENDCHAR
STARTCHAR hamza under alif isolated
ENCODING 52
SWIDTH 500 0
DWIDTH 12 0
BBX 12 36 0 -16
BITMAP
0000
0000
0000
0000
0200
0200
0600
0600
0600
0600
0600
0600
0600
0600
0600
0600
0600
0600
0600
0600
0400
0400
0000
0000
0700
0c00
0f00
0600
0c00
0800
0000
0000
0000
0000
0000
0000
ENDCHAR
STARTCHAR hamza under alif final
ENCODING 53
SWIDTH 500 0
DWIDTH 12 0
BBX 12 36 0 -16
BITMAP
0000
0000
0000
0000
0200
0600
0600
0600
0600
0600
0600
0600
0600
0600
0600
0600
0300
03f0
01f0
00f0
0000
0000
0700
0c00
0f00
0600
0c00
0800
0000
0000
0000
0000
0000
0000
0000
0000
ENDCHAR
STARTCHAR hamza on yaa initial
ENCODING 54
SWIDTH 500 0
DWIDTH 12 0
BBX 12 36 0 -16
BITMAP
0000
0000
0700
0c00
0f00
0600
0c00
0800
0000
0000
0000
0600
0600
0700
0300
0300
0700
fe00
fe00
f800
0000
0000
0000
0000
0000
0000
0000
0000
0000
0000
0000
0000
0000
0000
0000
0000
ENDCHAR
STARTCHAR hamza on yaa medial
ENCODING 55
SWIDTH 500 0
DWIDTH 12 0
BBX 12 36 0 -16
BITMAP
0000
0000
0000
0000
0000
0700
0c00
0f00
0600
0c00
0800
0000
0000
0200
0600
0600
0f00
fff0
fbf0
f1f0
0000
0000
0000
0000
0000
0000
0000
0000
0000
0000
0000
0000
0000
0000
0000
0000
ENDCHAR
STARTCHAR alif isolated
ENCODING 56
SWIDTH 500 0
DWIDTH 12 0
BBX 12 36 0 -16
BITMAP
0000
0000
0000
0000
0200
0200
0600
0600
0600
0600
0600
0600
0600
0600
0600
0600
0600
0600
0600
0600
0400
0400
0000
0000
0000
0000
0000
0000
0000
0000
0000
0000
0000
0000
0000
0000
ENDCHAR
STARTCHAR alif final
ENCODING 57
SWIDTH 500 0
DWIDTH 12 0
BBX 12 36 0 -16
BITMAP
0000
0000
0000
0000
0200
0600
0600
0600
0600
0600
0600
0600
0600
0600
0600
0600
0300
03f0
01f0
00f0
0000
0000
0000
0000
0000
0000
0000
0000
0000
0000
0000
0000
0000
0000
0000
0000
ENDCHAR
STARTCHAR baa initial
ENCODING 58
SWIDTH 500 0
DWIDTH 12 0
BBX 12 36 0 -16
BITMAP
0000
0000
0000
0000
0000
0000
0000
0000
0000
0000
0000
0600
0600
0700
0300
0300
0700
ff00
fe00
fc00
0000
0000
0000
0200
0700
0f80
0700
0200
0000
0000
0000
0000
0000
0000
0000
0000
ENDCHAR
STARTCHAR baa medial
ENCODING 59
SWIDTH 500 0
DWIDTH 12 0
BBX 12 36 0 -16
BITMAP
0000
0000
0000
0000
0000
0000
0000
0000
0000
0000
0000
0000
0000
0200
0600
0600
0f00
fff0
fbf0
f1f0
0000
0000
0000
0400
0e00
1f00
0e00
0400
0000
0000
0000
0000
0000
0000
0000
0000
ENDCHAR
STARTCHAR taa marbuTa isolated
ENCODING 60
SWIDTH 500 0
DWIDTH 12 0
BBX 12 36 0 -16
BITMAP
0000
0000
1080
39c0
7fe0
39c0
1080
0000
0000
0000
0600
0e00
1f00
1b00
3380
3180
3180
3f80
1f00
0e00
0000
0000
0000
0000
0000
0000
0000
0000
0000
0000
0000
0000
0000
0000
0000
0000
ENDCHAR
STARTCHAR taa marbuTa final
ENCODING 61
SWIDTH 500 0
DWIDTH 12 0
BBX 12 36 0 -16
BITMAP
0000
0000
1080
39c0
7fe0
39c0
1080
0000
0000
0200
0200
0300
0700
1f00
3980
6180
73c0
7ff0
3cf0
0030
0000
0000
0000
0000
0000
0000
0000
0000
0000
0000
0000
0000
0000
0000
0000
0000
ENDCHAR
STARTCHAR taa initial
ENCODING 62
SWIDTH 500 0
DWIDTH 12 0
BBX 12 36 0 -16
BITMAP
0000
0000
0000
1080
39c0
7fe0
39c0
1080
0000
0000
0000
0600
0600
0700
0300
0300
0700
fe00
fe00
f800
0000
0000
0000
0000
0000
0000
0000
0000
0000
0000
0000
0000
0000
0000
0000
0000
ENDCHAR
STARTCHAR taa medial
ENCODING 63
SWIDTH 500 0
DWIDTH 12 0
BBX 12 36 0 -16
BITMAP
0000
0000
0000
0000
0000
1080
39c0
7fe0
39c0
1080
0000
0000
0000
0200
0600
0600
0f00
fff0
fbf0
f1f0
0000
0000
0000
0000
0000
0000
0000
0000
0000
0000
0000
0000
0000
0000
0000
0000
ENDCHAR
STARTCHAR thaa initial
ENCODING 64
SWIDTH 500 0
DWIDTH 12 0
BBX 12 36 0 -16
BITMAP
0400
0e00
1f00
0e00
0400
1100
3b80
7fc0
3b80
1100
0000
0600
0600
0700
0300
0300
0700
fe00
fe00
f800
0000
0000
0000
0000
0000
0000
0000
0000
0000
0000
0000
0000
0000
0000
0000
0000
ENDCHAR
STARTCHAR thaa medial
ENCODING 65
SWIDTH 500 0
DWIDTH 12 0
BBX 12 36 0 -16
BITMAP
0000
0200
0700
0f80
0700
0200
0880
1dc0
3fe0
1dc0
0880
0000
0000
0200
0600
0600
0f00
fff0
fbf0
f1f0
0000
0000
0000
0000
0000
0000
0000
0000
0000
0000
0000
0000
0000
0000
0000
0000
ENDCHAR
STARTCHAR daal isolated
ENCODING 66
SWIDTH 500 0
DWIDTH 12 0
BBX 12 36 0 -16
BITMAP
0000
0000
0000
0000
0000
0000
0000
0000
0000
0000
0700
0f80
01c0
00c0
00e0
0060
0060
3fe0
1fc0
0f80
0000
0000
0000
0000
0000
0000
0000
0000
0000
0000
0000
0000
0000
0000
0000
0000
ENDCHAR
STARTCHAR daal final
ENCODING 67
SWIDTH 500 0
DWIDTH 12 0
BBX 12 36 0 -16
BITMAP
0000
0000
0000
0000
0000
0000
0000
0000
0000
0000
0600
0600
0300
0300
0180
0180
03c0
7ff0
3ef0
1c70
0000
0000
0000
0000
0000
0000
0000
0000
0000
0000
0000
0000
0000
0000
0000
0000
ENDCHAR
STARTCHAR dhaal isolated
ENCODING 68
SWIDTH 500 0
DWIDTH 12 0
BBX 12 36 0 -16
BITMAP
0000
0000
0400
0e00
1f00
0e00
0400
0000
0000
0000
0700
0f80
01c0
00c0
00e0
0060
0060
3fe0
1fc0
0f80
0000
0000
0000
0000
0000
0000
0000
0000
0000
0000
0000
0000
0000
0000
0000
0000
ENDCHAR
STARTCHAR dhaal final
ENCODING 69
SWIDTH 500 0
DWIDTH 12 0
BBX 12 36 0 -16
BITMAP
0000
0000
0400
0e00
1f00
0e00
0400
0000
0000
0000
0600
0600
0300
0300
0180
0180
03c0
7ff0
3ef0
1c70
0000
0000
0000
0000
0000
0000
0000
0000
0000
0000
0000
0000
0000
0000
0000
0000
ENDCHAR
STARTCHAR raa isolated
ENCODING 70
SWIDTH 500 0
DWIDTH 12 0
BBX 12 36 0 -16
BITMAP
0000
0000
0000
0000
0000
0000
0000
0000
0000
0000
0000
0000
0000
0000
0000
0000
0300
0380
0180
00c0
00c0
0060
0060
0060
0060
00e0
7fc0
3f80
0f00
0000
0000
0000
0000
0000
0000
0000
ENDCHAR
STARTCHAR raa final
ENCODING 71
SWIDTH 500 0
DWIDTH 12 0
BBX 12 36 0 -16
BITMAP
0000
0000
0000
0000
0000
0000
0000
0000
0000
0000
0000
0000
0000
0000
0000
0000
0300
03f0
01f0
01f0
00c0
00c0
0060
0060
0060
00e0
7fc0
3f80
0f00
0000
0000
0000
0000
0000
0000
0000
ENDCHAR
STARTCHAR zaay isolated
ENCODING 72
SWIDTH 500 0
DWIDTH 12 0
BBX 12 36 0 -16
BITMAP
0000
0000
0000
0000
0000
0000
0000
0000
0200
0700
0f80
0700
0200
0000
0000
0000
0300
0380
0180
00c0
00e0
0060
0060
0060
0060
00e0
7fc0
3f80
0f00
0000
0000
0000
0000
0000
0000
0000
ENDCHAR
STARTCHAR zaay final
ENCODING 73
SWIDTH 500 0
DWIDTH 12 0
BBX 12 36 0 -16
BITMAP
0000
0000
0000
0000
0000
0000
0000
0000
0200
0700
0f80
0700
0200
0000
0000
0000
0300
03f0
01f0
01f0
00c0
00c0
0060
0060
0060
00e0
7fc0
3f80
0f00
0000
0000
0000
0000
0000
0000
0000
ENDCHAR
STARTCHAR ayn initial
ENCODING 74
SWIDTH 500 0
DWIDTH 12 0
BBX 12 36 0 -16
BITMAP
0000
0000
0000
0000
0000
0000
0000
0000
0000
0000
0780
0fc0
1c40
1800
1800
1c00
0e00
ffe0
ffc0
ff80
0000
0000
0000
0000
0000
0000
0000
0000
0000
0000
0000
0000
0000
0000
0000
0000
ENDCHAR
STARTCHAR ayn medial
ENCODING 75
SWIDTH 500 0
DWIDTH 12 0
BBX 12 36 0 -16
BITMAP
0000
0000
0000
0000
0000
0000
0000
0000
0000
0000
0000
0000
0700
0f80
1f80
0f80
0700
fff0
fff0
f8f0
0000
0000
0000
0000
0000
0000
0000
0000
0000
0000
0000
0000
0000
0000
0000
0000
ENDCHAR
STARTCHAR ghayn initial
ENCODING 76
SWIDTH 500 0
DWIDTH 12 0
BBX 12 36 0 -16
BITMAP
0000
0000
0200
0700
0f80
0700
0200
0000
0000
0000
0780
0fc0
1c40
1800
1800
1c00
0e00
ffe0
ffc0
ff80
0000
0000
0000
0000
0000
0000
0000
0000
0000
0000
0000
0000
0000
0000
0000
0000
ENDCHAR
STARTCHAR ghayn medial
ENCODING 77
SWIDTH 500 0
DWIDTH 12 0
BBX 12 36 0 -16
BITMAP
0000
0000
0000
0000
0200
0700
0f80
0700
0200
0000
0000
0000
0700
0f80
1f80
0f80
0700
fff0
fff0
f8f0
0000
0000
0000
0000
0000
0000
0000
0000
0000
0000
0000
0000
0000
0000
0000
0000
ENDCHAR
STARTCHAR faa initial
ENCODING 78
SWIDTH 500 0
DWIDTH 12 0
BBX 12 36 0 -16
BITMAP
0400
0e00
1f00
0e00
0400
0000
0000
0000
0700
0f00
1b80
1980
1b80
1f80
0f80
0180
0380
ff00
ff00
fc00
0000
0000
0000
0000
0000
0000
0000
0000
0000
0000
0000
0000
0000
0000
0000
0000
ENDCHAR
STARTCHAR faa medial
ENCODING 79
SWIDTH 500 0
DWIDTH 12 0
BBX 12 36 0 -16
BITMAP
0000
0000
0000
0400
0e00
1f00
0e00
0400
0000
0000
0000
0700
0f00
1d80
1980
1980
0f00
fff0
fff0
f9f0
0000
0000
0000
0000
0000
0000
0000
0000
0000
0000
0000
0000
0000
0000
0000
0000
ENDCHAR
STARTCHAR qaaf initial
ENCODING 80
SWIDTH 500 0
DWIDTH 12 0
BBX 12 36 0 -16
BITMAP
0000
1080
39c0
7fe0
39c0
1080
0000
0000
0700
0f00
1b80
1980
1b80
1f80
0f80
0180
0380
ff80
ff00
fc00
0000
0000
0000
0000
0000
0000
0000
0000
0000
0000
0000
0000
0000
0000
0000
0000
ENDCHAR
STARTCHAR qaaf medial
ENCODING 81
SWIDTH 500 0
DWIDTH 12 0
BBX 12 36 0 -16
BITMAP
0000
0000
0000
0000
1080
39c0
7fe0
39c0
1080
0000
0000
0700
0f00
1d80
1980
1980
0f00
fff0
fff0
f9f0
0000
0000
0000
0000
0000
0000
0000
0000
0000
0000
0000
0000
0000
0000
0000
0000
ENDCHAR
STARTCHAR laam initial
ENCODING 82
SWIDTH 500 0
DWIDTH 12 0
BBX 12 36 0 -16
BITMAP
0000
0000
0000
0300
0380
0380
0300
0300
0300
0300
0300
0300
0300
0300
0300
0300
0700
ff00
fe00
fc00
0000
0000
0000
0000
0000
0000
0000
0000
0000
0000
0000
0000
0000
0000
0000
0000
ENDCHAR
STARTCHAR laam medial
ENCODING 83
SWIDTH 500 0
DWIDTH 12 0
BBX 12 36 0 -16
BITMAP
0000
0000
0000
0400
0c00
0c00
0c00
0c00
0c00
0c00
0c00
0c00
0c00
0c00
0c00
0e00
1f00
fff0
fbf0
f1f0
0000
0000
0000
0000
0000
0000
0000
0000
0000
0000
0000
0000
0000
0000
0000
0000
ENDCHAR
STARTCHAR miim isolated
ENCODING 84
SWIDTH 500 0
DWIDTH 12 0
BBX 12 36 0 -16
BITMAP
0000
0000
0000
0000
0000
0000
0000
0000
0000
0000
0000
0000
0000
0f00
1f80
31c0
01c0
0fc0
1fc0
3f00
3000
7000
6000
6000
6000
6000
6000
6000
6000
6000
6000
2000
2000
0000
0000
0000
ENDCHAR
STARTCHAR miim initial
ENCODING 85
SWIDTH 500 0
DWIDTH 12 0
BBX 12 36 0 -16
BITMAP
0000
0000
0000
0000
0000
0000
0000
0000
0000
0000
0000
0000
0380
07c0
0ee0
1c60
3e60
f7e0
f3c0
e180
0000
0000
0000
0000
0000
0000
0000
0000
0000
0000
0000
0000
0000
0000
0000
0000
ENDCHAR
STARTCHAR miim medial
ENCODING 86
SWIDTH 500 0
DWIDTH 12 0
BBX 12 36 0 -16
BITMAP
0000
0000
0000
0000
0000
0000
0000
0000
0000
0000
0000
0000
0700
0f00
1f80
1980
79c0
fff0
eff0
c730
0000
0000
0000
0000
0000
0000
0000
0000
0000
0000
0000
0000
0000
0000
0000
0000
ENDCHAR
STARTCHAR miim final
ENCODING 87
SWIDTH 500 0
DWIDTH 12 0
BBX 12 36 0 -16
BITMAP
0000
0000
0000
0000
0000
0000
0000
0000
0000
0000
0000
0000
0000
0300
0f80
1fc0
3ce0
7ef0
77f0
67f0
6380
6000
6000
6000
6000
6000
6000
6000
6000
6000
6000
2000
2000
0000
0000
0000
ENDCHAR
STARTCHAR nuun initial
ENCODING 88
SWIDTH 500 0
DWIDTH 12 0
BBX 12 36 0 -16
BITMAP
0000
0000
0000
0400
0e00
1f00
0e00
0400
0000
0000
0000
0600
0600
0700
0300
0300
0700
ff00
fe00
f800
0000
0000
0000
0000
0000
0000
0000
0000
0000
0000
0000
0000
0000
0000
0000
0000
ENDCHAR
STARTCHAR nuun medial
ENCODING 89
SWIDTH 500 0
DWIDTH 12 0
BBX 12 36 0 -16
BITMAP
0000
0000
0000
0000
0000
0200
0700
0f80
0700
0200
0000
0000
0000
0200
0600
0600
0f00
fff0
fbf0
f1f0
0000
0000
0000
0000
0000
0000
0000
0000
0000
0000
0000
0000
0000
0000
0000
0000
ENDCHAR
STARTCHAR haa isolated
ENCODING 90
SWIDTH 500 0
DWIDTH 12 0
BBX 12 36 0 -16
BITMAP
0000
0000
0000
0000
0000
0000
0000
0000
0000
0000
0600
0e00
1f00
1b00
3380
3180
3180
3f80
1f00
0e00
0000
0000
0000
0000
0000
0000
0000
0000
0000
0000
0000
0000
0000
0000
0000
0000
ENDCHAR
STARTCHAR haa initial
ENCODING 91
SWIDTH 500 0
DWIDTH 12 0
BBX 12 36 0 -16
BITMAP
0000
0000
0000
0000
0000
0000
0000
0000
0c00
1e00
1f00
0f80
1fc0
1be0
1b60
1b60
1fe0
ffc0
ff80
f800
0000
0000
0000
0000
0000
0000
0000
0000
0000
0000
0000
0000
0000
0000
0000
0000
ENDCHAR
STARTCHAR haa medial
ENCODING 92
SWIDTH 500 0
DWIDTH 12 0
BBX 12 36 0 -16
BITMAP
0000
0000
0000
0000
0000
0000
0000
0000
0000
0000
0000
0000
0300
0780
0d80
0d80
1900
fff0
fff0
fff0
1f00
1980
1980
1d80
0f00
0600
0000
0000
0000
0000
0000
0000
0000
0000
0000
0000
ENDCHAR
STARTCHAR haa final
ENCODING 93
SWIDTH 500 0
DWIDTH 12 0
BBX 12 36 0 -16
BITMAP
0000
0000
0000
0000
0000
0000
0000
0000
0000
0200
0200
0300
0f00
1f00
3980
6180
73c0
7ff0
3cf0
0030
0000
0000
0000
0000
0000
0000
0000
0000
0000
0000
0000
0000
0000
0000
0000
0000
ENDCHAR
STARTCHAR waaw isolated
ENCODING 94
SWIDTH 500 0
DWIDTH 12 0
BBX 12 36 0 -16
BITMAP
0000
0000
0000
0000
0000
0000
0000
0000
0000
0000
0000
0000
0700
0f80
1dc0
19c0
18c0
1fc0
0fc0
0fc0
01c0
0180
0380
0700
7e00
1c00
0000
0000
0000
0000
0000
0000
0000
0000
0000
0000
ENDCHAR
STARTCHAR waaw final
ENCODING 95
SWIDTH 500 0
DWIDTH 12 0
BBX 12 36 0 -16
BITMAP
0000
0000
0000
0000
0000
0000
0000
0000
0000
0000
0000
0000
0700
0f80
1dc0
19c0
18c0
1ff0
0ff0
0ff0
0180
0180
0380
0700
7e00
1c00
0000
0000
0000
0000
0000
0000
0000
0000
0000
0000
ENDCHAR
STARTCHAR yaa initial
ENCODING 96
SWIDTH 500 0
DWIDTH 12 0
BBX 12 36 0 -16
BITMAP
0000
0000
0000
0000
0000
0000
0000
0000
0000
0000
0000
0600
0600
0700
0300
0300
0700
fe00
fe00
f800
0000
0000
0000
1080
39c0
7fe0
39c0
1080
0000
0000
0000
0000
0000
0000
0000
0000
ENDCHAR
STARTCHAR yaa medial
ENCODING 97
SWIDTH 500 0
DWIDTH 12 0
BBX 12 36 0 -16
BITMAP
0000
0000
0000
0000
0000
0000
0000
0000
0000
0000
0000
0000
0000
0200
0600
0600
0f00
fff0
fbf0
f1f0
0000
0000
0000
1080
39c0
7fe0
39c0
1080
0000
0000
0000
0000
0000
0000
0000
0000
ENDCHAR
STARTCHAR laam + madda on alif isolated
ENCODING 98
SWIDTH 500 0
DWIDTH 12 0
BBX 12 36 0 -16
BITMAP
1c60
3fc0
6380
0000
0060
7070
7070
7860
3860
1c60
0cc0
0cc0
06c0
06c0
0780
0380
0380
0380
0780
0d80
1f80
1f80
0f00
0000
0000
0000
0000
0000
0000
0000
0000
0000
0000
0000
0000
0000
ENDCHAR
STARTCHAR laam + hamza on alif isolated
ENCODING 99
SWIDTH 500 0
DWIDTH 12 0
BBX 12 36 0 -16
BITMAP
1c00
3000
3c00
1800
3060
7070
7070
7860
3860
1c60
0cc0
0cc0
06c0
06c0
0380
0380
0380
0380
0780
0d80
1f80
1f80
0f00
0000
0000
0000
0000
0000
0000
0000
0000
0000
0000
0000
0000
0000
ENDCHAR
STARTCHAR laam + hamza under alif isolated
ENCODING 100
SWIDTH 500 0
DWIDTH 12 0
BBX 12 36 0 -16
BITMAP
0000
0000
0000
0000
0060
7070
7070
7860
3860
1c60
0cc0
0cc0
06c0
06c0
0780
0380
0380
0380
0780
0d80
1f80
1f80
0f00
0000
0000
3800
6000
7800
3000
6000
4000
0000
0000
0000
0000
0000
ENDCHAR
STARTCHAR laam + alif isolated
ENCODING 101
SWIDTH 500 0
DWIDTH 12 0
BBX 12 36 0 -16
BITMAP
0000
0000
0000
0000
0060
7070
7070
7860
3860
1c60
0cc0
0cc0
06c0
06c0
0780
0380
0380
0380
0780
0d80
1f80
1f80
0f00
0000
0000
0000
0000
0000
0000
0000
0000
0000
0000
0000
0000
0000
ENDCHAR
STARTCHAR paa initial
ENCODING 102
SWIDTH 500 0
DWIDTH 12 0
BBX 12 36 0 -16
BITMAP
0000
0000
0000
0000
0000
0000
0000
0000
0000
0000
0000
0600
0600
0700
0300
0300
0700
fe00
fe00
f800
0000
0000
0000
1100
3b80
7fc0
3b80
1100
0400
0e00
1f00
0e00
0400
0000
0000
0000
ENDCHAR
STARTCHAR paa medial
ENCODING 103
SWIDTH 500 0
DWIDTH 12 0
BBX 12 36 0 -16
BITMAP
0000
0000
0000
0000
0000
0000
0000
0000
0000
0000
0000
0000
0000
0200
0600
0600
0f00
fff0
fbf0
f1f0
0000
0000
0000
1100
3b80
7fc0
3b80
1100
0400
0e00
1f00
0e00
0400
0000
0000
0000
ENDCHAR
STARTCHAR zhaa isolated
ENCODING 104
SWIDTH 500 0
DWIDTH 12 0
BBX 12 36 0 -16
BITMAP
0000
0000
0000
0000
0200
0700
0f80
0700
0200
0880
1dc0
3fe0
1dc0
0880
0000
0000
0300
0380
0180
00c0
00c0
0060
0060
0060
0060
00e0
7fc0
3f80
0f00
0000
0000
0000
0000
0000
0000
0000
ENDCHAR
STARTCHAR zhaa final
ENCODING 105
SWIDTH 500 0
DWIDTH 12 0
BBX 12 36 0 -16
BITMAP
0000
0000
0000
0000
0200
0700
0f80
0700
0200
0880
1dc0
3fe0
1dc0
0880
0000
0000
0300
03f0
01f0
01f0
00c0
00c0
0060
0060
0060
00e0
7fc0
3f80
0f00
0000
0000
0000
0000
0000
0000
0000
ENDCHAR
ENDFONT
